<svg width="26" height="26" viewBox="0 0 26 26" fill="none" xmlns="http://www.w3.org/2000/svg">
<path fill-rule="evenodd" clip-rule="evenodd" d="M25.1821 22.2281C24.9375 22.8494 24.3731 23.7242 23.5727 24.3404C23.1106 24.6963 22.5589 25.0365 21.8011 25.261C20.9933 25.5004 19.9983 25.5813 18.7599 25.5813H7.4366C6.1983 25.5813 5.2033 25.5004 4.3954 25.261C3.6376 25.0365 3.086 24.6963 2.6238 24.3404C1.8235 23.7241 1.259 22.8494 1.0144 22.2281C0.5217 20.9763 0.516701 19.556 0.516701 18.6615V7.3381C0.516701 6.4436 0.5217 5.0233 1.0144 3.7715C1.259 3.1502 1.8234 2.2754 2.6238 1.6592C3.0859 1.3033 3.6376 0.9631 4.3954 0.7386C5.2032 0.4992 6.1982 0.418301 7.4366 0.418301H18.76C19.9983 0.418301 20.9933 0.4992 21.8012 0.7386C22.559 0.9631 23.1106 1.3034 23.5728 1.6592C24.3731 2.2755 24.9376 3.1502 25.1822 3.7715C25.6749 5.0233 25.6799 6.4436 25.6799 7.3381V18.6615C25.6798 19.5559 25.6748 20.9762 25.1821 22.2281Z" fill="#23201F"/>
<path d="M14.9232 14.8815C14.5456 14.4831 13.8824 14.2277 13.0995 14.2277C12.3165 14.2277 11.6533 14.4831 11.2757 14.8815C11.0787 15.0894 10.9745 15.3025 10.9417 15.6061C10.8781 16.194 10.9138 16.7002 10.9827 17.5095C11.0483 18.2807 11.1729 19.3091 11.3355 20.3565C11.4512 21.1019 11.5452 21.5042 11.6308 21.7923C11.7696 22.2592 12.2883 22.6675 13.0995 22.6675C13.9106 22.6675 14.4293 22.2591 14.5681 21.7923C14.6537 21.5042 14.7477 21.1019 14.8634 20.3565C15.026 19.3091 15.1506 18.2807 15.2162 17.5095C15.2851 16.7001 15.3208 16.1939 15.2572 15.6061C15.2244 15.3026 15.1202 15.0894 14.9232 14.8815ZM11.0421 11.3342C11.0421 12.4715 11.9641 13.3935 13.1014 13.3935C14.2388 13.3935 15.1608 12.4715 15.1608 11.3342C15.1608 10.1968 14.2388 9.2748 13.1014 9.2748C11.9641 9.2748 11.0421 10.1968 11.0421 11.3342ZM13.0759 3.2072C8.2596 3.2209 4.3131 7.1282 4.2535 11.9442C4.2051 15.8455 6.6955 19.1827 10.173 20.4059C10.2574 20.4356 10.3431 20.3655 10.3298 20.277C10.2842 19.9741 10.2412 19.6697 10.2017 19.3704C10.1877 19.2646 10.1203 19.1734 10.0226 19.1307C7.274 17.9299 5.3547 15.1733 5.3855 11.9802C5.4259 7.7898 8.8477 4.3736 13.0381 4.3397C17.322 4.3051 20.8181 7.7799 20.8181 12.0559C20.8181 15.217 18.9072 17.9398 16.18 19.131C16.0823 19.1737 16.0153 19.2652 16.0014 19.3709C15.9619 19.6701 15.9189 19.9744 15.8734 20.277C15.86 20.3655 15.9457 20.4356 16.0301 20.406C19.4744 19.1945 21.9503 15.9092 21.9503 12.056C21.9501 7.1681 17.9668 3.1932 13.0759 3.2072ZM12.916 7.2667C15.6463 7.161 17.9011 9.3514 17.9011 12.0586C17.9011 13.4354 17.3178 14.6784 16.3855 15.5538C16.3064 15.628 16.2639 15.7334 16.27 15.8417C16.2886 16.171 16.2818 16.491 16.2599 16.8524C16.254 16.9487 16.362 17.0102 16.4417 16.9559C18.0051 15.8875 19.0334 14.091 19.0334 12.0586C19.0334 8.7122 16.246 6.0045 12.8711 6.1353C9.7347 6.2569 7.2184 8.8428 7.1782 11.9814C7.1518 14.0456 8.1864 15.8743 9.7699 16.9561C9.8494 17.0104 9.9571 16.9488 9.9512 16.8526C9.9292 16.491 9.9225 16.171 9.941 15.8417C9.9471 15.7335 9.9047 15.6281 9.8258 15.554C8.8644 14.6514 8.274 13.3579 8.3116 11.9299C8.3778 9.4169 10.4039 7.364 12.916 7.2667Z" fill="#CCCCCC"/>
</svg>
