<svg width="39" height="44" viewBox="0 0 39 44" fill="none" xmlns="http://www.w3.org/2000/svg">
<path d="M0.554932 12.8473V31.3725C0.554932 32.5324 1.17232 33.603 2.17513 34.1882L18.0488 43.4276C19.0623 44.0165 20.3149 44.0165 21.3248 43.4276L37.1985 34.1882C38.2013 33.6065 38.8187 32.5324 38.8187 31.3725V12.8473C38.8187 11.6875 38.2013 10.6169 37.1985 10.0316L21.3213 0.792214C20.3078 0.203377 19.0551 0.203377 18.0452 0.792214L2.17156 10.0316C1.16875 10.6169 0.554932 11.6875 0.554932 12.8473Z" fill="#191B21"/>
<path d="M11.6003 26.1694C12.3426 26.1694 12.9457 25.5627 12.9457 24.824V21.0197C12.9457 20.2774 12.339 19.6743 11.6003 19.6743C10.858 19.6743 10.2549 20.281 10.2549 21.0197V24.8204C10.2549 25.5627 10.858 26.1694 11.6003 26.1694Z" fill="white"/>
<path d="M19.6833 27.2327C20.4256 27.2327 21.0287 26.626 21.0287 25.8873V16.5266C21.0287 15.7843 20.422 15.1812 19.6833 15.1812C18.941 15.1812 18.3379 15.7878 18.3379 16.5266V25.8873C18.3379 26.626 18.941 27.2327 19.6833 27.2327Z" fill="white"/>
<path d="M15.6398 30.0661C16.3821 30.0661 16.9852 29.4594 16.9852 28.7207V18.6926C16.9852 17.9503 16.3786 17.3472 15.6398 17.3472C14.8975 17.3472 14.2944 17.9538 14.2944 18.6926V28.7171C14.2944 29.4594 14.9011 30.0661 15.6398 30.0661Z" fill="white"/>
<path d="M23.8051 27.3544C24.5474 27.3544 25.1505 26.7478 25.1505 26.009V17.6154C25.1505 16.8731 24.5438 16.27 23.8051 16.27C23.0628 16.27 22.4597 16.8767 22.4597 17.6154V26.009C22.4597 26.7478 23.0628 27.3544 23.8051 27.3544Z" fill="white"/>
<path d="M27.8452 27.0723C28.5875 27.0723 29.1906 26.4656 29.1906 25.7269V21.0197C29.1906 20.2774 28.5839 19.6743 27.8452 19.6743C27.1029 19.6743 26.4998 20.281 26.4998 21.0197V25.7233C26.4998 26.4656 27.1029 27.0723 27.8452 27.0723Z" fill="white"/>
<path d="M31.8847 25.8588C32.627 25.8588 33.2301 25.2521 33.2301 24.5134V23.4499C33.2301 22.7076 32.6235 22.1045 31.8847 22.1045C31.1424 22.1045 30.5393 22.7112 30.5393 23.4499V24.5134C30.5358 25.2521 31.1424 25.8588 31.8847 25.8588Z" fill="white"/>
<path d="M12.9456 24.3242C12.9456 24.3242 13.0562 23.953 13.6736 23.953C14.291 23.953 14.4087 24.3242 14.4087 24.3242V23.5854H12.9456V24.3242Z" fill="white"/>
<path d="M14.4092 21.562C14.4092 21.562 14.2986 21.9332 13.6812 21.9332C13.0638 21.9332 12.946 21.562 12.946 21.562V22.3007H14.4092V21.562Z" fill="white"/>
<path d="M14.4087 22.1011H12.9456V23.6713H14.4087V22.1011Z" fill="white"/>
<path d="M16.9707 22.7612C16.9707 22.7612 17.0813 22.39 17.6987 22.39C18.3161 22.39 18.4339 22.7612 18.4339 22.7612V22.0225H16.9707V22.7612Z" fill="white"/>
<path d="M18.4339 19.999C18.4339 19.999 18.3232 20.3702 17.7059 20.3702C17.0885 20.3702 16.9707 19.999 16.9707 19.999V20.7377H18.4339V19.999Z" fill="white"/>
<path d="M18.4339 20.5415H16.9707V22.1117H18.4339V20.5415Z" fill="white"/>
<path d="M21.0286 23.4931C21.0286 23.4931 21.1392 23.122 21.7566 23.122C22.374 23.122 22.4917 23.4931 22.4917 23.4931V22.7544H21.0286V23.4931Z" fill="white"/>
<path d="M22.4925 20.731C22.4925 20.731 22.3818 21.1021 21.7645 21.1021C21.1471 21.1021 21.0293 20.731 21.0293 20.731V21.4697H22.4925V20.731Z" fill="white"/>
<path d="M22.4917 21.2729H21.0286V22.8432H22.4917V21.2729Z" fill="white"/>
</svg>
