<svg width="33" height="63" viewBox="0 0 33 63" fill="none" xmlns="http://www.w3.org/2000/svg">
<path d="M16.9043 31.0703C8.21324 31.0703 1.15234 38.1424 1.15234 46.8437C1.15234 55.545 8.21324 62.617 16.9043 62.617C25.5954 62.617 32.6562 55.545 32.6562 46.8437C32.6562 38.1424 25.5954 31.0703 16.9043 31.0703ZM16.9043 32.7124C24.7061 32.7124 31.0142 39.0291 31.0142 46.8437C31.0142 54.6582 24.7061 60.975 16.9043 60.975C9.10249 60.975 2.7944 54.6582 2.7944 46.8437C2.7944 39.0291 9.10249 32.7124 16.9043 32.7124Z" fill="#191B21" stroke="#191B21" stroke-width="0.4" stroke-linejoin="bevel"/>
<path d="M5.27025 1C5.16222 1.00008 5.05527 1.02139 4.95552 1.06285C4.85577 1.10431 4.76517 1.1651 4.68891 1.24161C4.61265 1.31812 4.55223 1.40891 4.5111 1.5088C4.46997 1.60869 4.44894 1.71568 4.44922 1.8237V15.9844C4.44922 16.0973 4.4725 16.209 4.51759 16.3125C4.56268 16.416 4.62863 16.5092 4.71131 16.5861L13.1222 24.3738C13.2734 24.5142 13.472 24.5925 13.6784 24.5932H20.129C20.3354 24.5925 20.5339 24.5142 20.6852 24.3738L29.0961 16.5861C29.1788 16.5092 29.2447 16.416 29.2898 16.3125C29.3349 16.209 29.3582 16.0973 29.3582 15.9844V1.8237C29.3584 1.71568 29.3374 1.60869 29.2963 1.5088C29.2552 1.40891 29.1947 1.31812 29.1185 1.24161C29.0422 1.1651 28.9516 1.10431 28.8519 1.06285C28.7521 1.02139 28.6452 1.00008 28.5371 1H5.27025ZM6.09128 2.64473H27.7161V15.6261L19.8054 22.9511H14.002L6.09128 15.6261V2.64473Z" fill="#191B21" stroke="#191B21" stroke-width="0.4" stroke-linejoin="bevel"/>
<path d="M15.4309 26.625C14.042 26.625 12.901 27.7685 12.901 29.1576V31.8962C12.8967 32.0067 12.9148 32.1169 12.9541 32.2203C12.9934 32.3236 13.0532 32.418 13.1299 32.4977C13.2066 32.5774 13.2985 32.6408 13.4003 32.6841C13.502 32.7274 13.6115 32.7496 13.722 32.7496C13.8326 32.7496 13.9421 32.7274 14.0438 32.6841C14.1456 32.6408 14.2375 32.5774 14.3142 32.4977C14.3908 32.418 14.4506 32.3236 14.49 32.2203C14.5293 32.1169 14.5473 32.0067 14.5431 31.8962V29.1576C14.5431 28.6489 14.925 28.2671 15.4309 28.2671H18.3781C18.884 28.2671 19.266 28.6489 19.266 29.1576V31.8962C19.2617 32.0067 19.2798 32.1169 19.3191 32.2203C19.3584 32.3236 19.4182 32.418 19.4949 32.4977C19.5715 32.5774 19.6635 32.6408 19.7652 32.6841C19.867 32.7274 19.9764 32.7496 20.087 32.7496C20.1976 32.7496 20.307 32.7274 20.4088 32.6841C20.5105 32.6408 20.6025 32.5774 20.6791 32.4977C20.7558 32.418 20.8156 32.3236 20.8549 32.2203C20.8942 32.1169 20.9123 32.0067 20.908 31.8962V29.1576C20.908 27.7685 19.7671 26.625 18.3781 26.625H15.4309Z" fill="#191B21" stroke="#191B21" stroke-width="0.4" stroke-linejoin="bevel"/>
<path d="M12.7746 22.4546C12.6271 22.4632 12.4847 22.5116 12.3623 22.5944C12.2399 22.6772 12.1422 22.7914 12.0793 22.9252C11.7238 23.6507 11.5391 24.4471 11.5391 25.2573C11.5391 26.6743 12.107 28.025 13.1009 29.0174C13.1757 29.0996 13.2664 29.1659 13.3675 29.212C13.4687 29.2581 13.5781 29.2833 13.6892 29.2859C13.8003 29.2885 13.9108 29.2684 14.014 29.227C14.1172 29.1857 14.2109 29.1239 14.2895 29.0453C14.3681 28.9668 14.4299 28.8731 14.4712 28.7699C14.5126 28.6667 14.5325 28.5562 14.5299 28.4451C14.5273 28.334 14.5022 28.2245 14.456 28.1234C14.4099 28.0222 14.3438 27.9316 14.2616 27.8568C13.5731 27.1694 13.1811 26.2356 13.1811 25.2573C13.1811 24.6984 13.3099 24.1486 13.5555 23.6473C13.6211 23.5184 13.6515 23.3744 13.6436 23.23C13.6357 23.0855 13.5899 22.9457 13.5106 22.8247C13.4314 22.7037 13.3216 22.6057 13.1924 22.5407C13.0631 22.4757 12.919 22.446 12.7746 22.4546Z" fill="#191B21" stroke="#191B21" stroke-width="0.4" stroke-linejoin="bevel"/>
<path d="M21.0607 22.5264C20.4359 22.4963 20.0073 23.1467 20.2825 23.7085C20.5095 24.1935 20.6275 24.7201 20.6275 25.257C20.6275 26.2672 20.2111 27.2275 19.4802 27.9207C18.7616 28.4638 19.976 29.6819 20.6088 29.1134C21.6169 27.8611 22.2695 26.5898 22.2695 25.257C22.2696 24.4787 22.0981 23.7128 21.7694 23.0105C21.6429 22.7288 21.3692 22.5417 21.0607 22.5264Z" fill="#191B21" stroke="#191B21" stroke-width="0.4" stroke-linejoin="bevel"/>
<path d="M15.3456 4.73633C13.6751 4.73633 12.3061 6.11015 12.2567 7.83064V22.8337C12.2126 23.9717 13.9429 23.9717 13.8987 22.8337V7.83064C13.8987 7.01195 14.5298 6.37855 15.3456 6.37855H18.4639C19.2796 6.37855 19.9107 7.01195 19.9107 7.83064V22.8337C19.8666 23.9717 21.5969 23.9717 21.5527 22.8337V7.83064C21.5527 6.13124 20.1627 4.73633 18.4639 4.73633H15.3589H15.3455H15.3456Z" fill="#191B21" stroke="#191B21" stroke-width="0.4" stroke-linejoin="bevel"/>
<path d="M7.97461 1.73242V19.3458H9.61666V1.73242H7.97461Z" fill="#191B21" stroke="#191B21" stroke-width="0.4" stroke-linejoin="bevel"/>
<path d="M24.0605 1.73242V19.4662H25.7053V1.73242H24.0605Z" fill="#191B21" stroke="#191B21" stroke-width="0.4" stroke-linejoin="bevel"/>
<path d="M16.8265 35.2668C16.6857 35.2793 16.5504 35.3278 16.4339 35.4076C16.3173 35.4874 16.2233 35.5958 16.161 35.7225L13.1006 41.9198L6.2508 42.9165C6.09886 42.9386 5.95615 43.0027 5.83882 43.1015C5.72149 43.2004 5.63422 43.33 5.58691 43.4758C5.53959 43.6216 5.5341 43.7777 5.57107 43.9264C5.60804 44.0751 5.68599 44.2107 5.7961 44.3175L10.7562 49.1375L9.58913 55.948C9.56327 56.0989 9.58024 56.2541 9.63811 56.3959C9.69598 56.5377 9.79245 56.6606 9.91661 56.7506C10.0408 56.8406 10.1877 56.894 10.3407 56.905C10.4937 56.916 10.6468 56.8841 10.7826 56.8128L16.9091 53.5945L23.038 56.8064C23.1739 56.8777 23.3271 56.9096 23.4802 56.8985C23.6333 56.8874 23.7803 56.8337 23.9044 56.7436C24.0286 56.6534 24.125 56.5304 24.1827 56.3884C24.2404 56.2464 24.2572 56.0913 24.2311 55.9403L23.0565 49.1302L28.0117 44.3052C28.1214 44.1982 28.199 44.0625 28.2356 43.9139C28.2723 43.7652 28.2665 43.6093 28.219 43.4637C28.1715 43.3181 28.0841 43.1888 27.9668 43.0902C27.8494 42.9915 27.7068 42.9276 27.5549 42.9056L20.7033 41.9151L17.636 35.7211C17.5627 35.5728 17.4461 35.45 17.3016 35.369C17.1572 35.2879 16.9916 35.2523 16.8265 35.2668ZM16.8999 37.9394L19.4214 43.0303C19.4804 43.1495 19.5676 43.2526 19.6753 43.3307C19.7831 43.4088 19.9083 43.4596 20.0401 43.4788L25.6707 44.2923L21.5993 48.2565C21.5039 48.3495 21.4326 48.4642 21.3915 48.5908C21.3504 48.7174 21.3408 48.8521 21.3634 48.9833L22.3277 54.5789L17.291 51.9401C17.1729 51.8781 17.0415 51.8456 16.908 51.8457C16.7746 51.8457 16.6431 51.8782 16.5251 51.9403L11.4918 54.5854L12.4497 48.9888C12.4722 48.8577 12.4624 48.7231 12.4212 48.5967C12.38 48.4702 12.3087 48.3557 12.2134 48.2629L8.13687 44.3013L13.7668 43.4815C13.8986 43.4621 14.0238 43.4111 14.1314 43.3329C14.2391 43.2546 14.3261 43.1514 14.385 43.0322L16.8999 37.9394Z" fill="#191B21" stroke="#191B21" stroke-width="0.4" stroke-linejoin="bevel"/>
</svg>
