<svg width="305" height="258" viewBox="0 0 305 258" fill="none" xmlns="http://www.w3.org/2000/svg">
<path fill-rule="evenodd" clip-rule="evenodd" d="M165.382 1.49524C169.889 3.65694 172.758 8.21606 172.758 13.2191V244.634C172.758 249.548 169.99 254.042 165.604 256.249C161.218 258.456 155.963 257.999 152.023 255.068L76.2697 198.709H13.6731C6.50048 198.709 0.685913 192.889 0.685913 185.709V76.9655C0.685913 69.7858 6.50048 63.9655 13.6731 63.9655H75.9938L151.632 3.0879C155.528 -0.0471196 160.874 -0.666464 165.382 1.49524ZM146.783 40.3529L88.7056 87.0967C86.3987 88.9534 83.5275 89.9655 80.5675 89.9655H26.6603V172.709H80.5675C83.3583 172.709 86.0748 173.609 88.3147 175.275L146.783 218.775V40.3529ZM195.005 77.4154C200.077 72.3386 208.3 72.3386 213.372 77.4154L247.804 111.881L282.235 77.4154C287.307 72.3386 295.53 72.3386 300.602 77.4154C305.674 82.4922 305.674 90.7234 300.602 95.8002L266.17 130.266L300.602 164.732C305.674 169.809 305.674 178.04 300.602 183.117C295.53 188.193 287.307 188.193 282.235 183.117L247.804 148.651L213.372 183.117C208.3 188.193 200.077 188.193 195.005 183.117C189.933 178.04 189.933 169.809 195.005 164.732L229.437 130.266L195.005 95.8002C189.933 90.7234 189.933 82.4922 195.005 77.4154Z" fill="white"/>
</svg>
