<svg width="305" height="259" viewBox="0 0 305 259" fill="none" xmlns="http://www.w3.org/2000/svg">
<path fill-rule="evenodd" clip-rule="evenodd" d="M165.544 1.91052C170.056 4.07223 172.927 8.63134 172.927 13.6344V245.049C172.927 249.963 170.157 254.457 165.766 256.664C161.376 258.871 156.116 258.414 152.173 255.483L76.3443 199.124H13.6859C6.50621 199.124 0.685913 193.304 0.685913 186.124V77.3808C0.685913 70.2011 6.50621 64.3808 13.6859 64.3808H76.0681L151.781 3.50318C155.68 0.368164 161.032 -0.251181 165.544 1.91052ZM146.927 40.7682L88.7923 87.512C86.4832 89.3687 83.6092 90.3808 80.6463 90.3808H26.6859V173.124H80.6463C83.4398 173.124 86.159 174.024 88.4011 175.691L146.927 219.19V40.7682Z" fill="white"/>
<path fill-rule="evenodd" clip-rule="evenodd" d="M199.122 43.3672C199.944 37.2542 205.5 32.9738 211.532 33.8067C226.886 35.927 249.616 43.0236 268.793 57.758C288.31 72.7545 304.41 95.9705 304.41 129.342C304.41 162.713 288.31 185.929 268.793 200.926C249.616 215.66 226.886 222.757 211.532 224.877C205.5 225.71 199.944 221.43 199.122 215.317C198.3 209.204 202.524 203.573 208.556 202.74C220.982 201.024 239.924 195.07 255.475 183.122C270.684 171.436 282.365 154.337 282.365 129.342C282.365 104.347 270.684 87.2476 255.475 75.5614C239.924 63.6132 220.982 57.6598 208.556 55.9438C202.524 55.1109 198.3 49.4801 199.122 43.3672Z" fill="white"/>
<path fill-rule="evenodd" clip-rule="evenodd" d="M203.074 82.408C203.505 79.0709 206.423 76.7342 209.591 77.1889C217.655 78.3463 229.592 82.2204 239.663 90.264C249.913 98.4507 258.368 111.124 258.368 129.342C258.368 147.56 249.913 160.233 239.663 168.42C229.592 176.464 217.655 180.338 209.591 181.495C206.423 181.95 203.505 179.613 203.074 176.276C202.642 172.939 204.86 169.865 208.028 169.41C214.554 168.474 224.502 165.224 232.669 158.701C240.656 152.321 246.791 142.987 246.791 129.342C246.791 115.697 240.656 106.363 232.669 99.983C224.502 93.4604 214.554 90.2104 208.028 89.2736C204.86 88.8189 202.642 85.7451 203.074 82.408Z" fill="white" stroke="white" stroke-width="8" stroke-linecap="round"/>
</svg>
