<svg width="18" height="18" viewBox="0 0 502 502" fill="none" xmlns="http://www.w3.org/2000/svg">
<path d="M55.2207 189.081V312.908C55.2207 316.255 56.894 317.928 60.2407 317.928H162.314C163.987 317.928 163.987 317.928 165.661 317.928L264.387 381.515C267.734 383.188 271.081 381.515 271.081 378.168V125.495C271.081 122.148 267.734 118.801 264.387 122.148L163.987 184.061H162.314L60.2407 185.735C56.894 185.735 55.2207 187.408 55.2207 189.081Z" fill="#191B21" stroke="#191B21" stroke-miterlimit="10"/>
<path d="M307.894 174.033C341.36 222.56 341.36 279.453 307.894 326.307" stroke="#191B21" stroke-width="15" stroke-miterlimit="10"/>
<path d="M349.727 145.583C399.927 214.19 399.927 289.49 349.727 356.423" stroke="#191B21" stroke-width="15" stroke-miterlimit="10"/>
</svg>
