<?xml version="1.0" encoding="utf-8"?>
<!-- Generator: Adobe Illustrator 25.0.0, SVG Export Plug-In . SVG Version: 6.00 Build 0)  -->
<svg version="1.1" id="Layer_1" xmlns="http://www.w3.org/2000/svg" xmlns:xlink="http://www.w3.org/1999/xlink" x="0px" y="0px"
	 viewBox="0 0 30 30" style="enable-background:new 0 0 30 30;" xml:space="preserve">
<style type="text/css">
	.st0{fill:#191B21;stroke:#191B21;stroke-miterlimit:10;}
	.st1{fill:none;stroke:#191B21;stroke-width:2;stroke-miterlimit:10;}
</style>
<path class="st0" d="M3.3,10.4v9.3c0,0.2,0.2,0.4,0.4,0.4h7.6c0.1,0,0.1,0,0.2,0.1l7.4,4.8c0.2,0.2,0.5,0,0.5-0.3V5.7
	c0-0.3-0.3-0.4-0.5-0.3L11.4,10c-0.1,0-0.1,0.1-0.2,0.1l-7.6,0.1C3.5,10.1,3.3,10.2,3.3,10.4z"/>
<path class="st1" d="M21.7,8.9L21.7,8.9c2.7,3.9,2.7,8.5,0,12.4l0,0"/>
<path class="st1" d="M24.5,5l0.1,0.1c4,6.4,4,13.4-0.1,19.8l0,0"/>
</svg>
